<?xml version="1.0" standalone="no"?>
<!DOCTYPE svg PUBLIC "-//W3C//DTD SVG 20010904//EN"
 "http://www.w3.org/TR/2001/REC-SVG-20010904/DTD/svg10.dtd">
<svg version="1.0" xmlns="http://www.w3.org/2000/svg"
 width="888.000000pt" height="892.000000pt" viewBox="0 0 888.000000 892.000000"
 preserveAspectRatio="xMidYMid meet">

<g transform="translate(0.000000,892.000000) scale(0.100000,-0.100000)"
fill="#000000" stroke="none">
<path d="M4165 8810 c-114 -8 -156 -12 -390 -45 -170 -23 -380 -69 -545 -118
-125 -37 -222 -68 -245 -78 -11 -4 -60 -24 -110 -43 -49 -19 -124 -49 -165
-66 -104 -42 -420 -202 -420 -212 0 -4 -5 -8 -11 -8 -33 0 -406 -252 -569
-384 -41 -33 -81 -65 -89 -71 -48 -36 -339 -319 -436 -426 -115 -125 -254
-305 -372 -482 -23 -34 -50 -73 -61 -87 -10 -14 -51 -83 -91 -155 -39 -71 -76
-137 -81 -145 -13 -20 -130 -261 -130 -267 0 -2 -11 -28 -24 -56 -87 -187
-175 -458 -240 -737 -33 -138 -37 -158 -51 -255 -9 -55 -23 -145 -33 -200 -25
-150 -24 -903 1 -1055 10 -58 22 -136 28 -175 9 -65 15 -99 53 -275 45 -208
140 -504 221 -690 20 -47 39 -93 42 -104 28 -92 351 -664 393 -696 4 -3 12
-14 18 -26 25 -48 184 -249 308 -390 199 -226 438 -447 682 -630 161 -121 538
-354 573 -354 4 0 9 -3 11 -7 5 -12 106 -63 122 -63 8 0 21 -6 28 -13 7 -8 31
-20 53 -27 22 -7 49 -19 60 -26 11 -7 63 -29 115 -49 52 -19 104 -40 115 -45
33 -15 328 -110 358 -115 15 -3 46 -12 70 -19 23 -8 58 -17 77 -20 19 -4 76
-15 125 -26 252 -53 612 -90 883 -90 156 0 500 23 607 41 33 5 103 17 155 25
52 8 109 19 125 24 17 5 59 14 95 20 96 17 473 130 535 160 11 6 34 14 50 19
106 33 420 182 580 275 39 23 81 46 95 53 14 7 34 18 44 25 253 168 379 258
486 349 30 25 66 55 79 65 41 32 209 194 311 299 270 277 520 620 681 930 22
44 47 87 55 96 8 8 14 22 14 30 0 8 4 19 9 25 12 13 171 374 171 389 0 8 54
159 71 200 4 11 16 47 24 80 9 33 25 92 36 130 10 39 26 102 34 140 9 39 23
99 32 135 16 72 47 272 65 425 15 133 15 742 0 865 -38 307 -101 629 -156 795
-8 22 -26 81 -41 130 -15 50 -33 104 -40 120 -7 17 -25 62 -40 100 -88 233
-261 572 -407 800 -68 106 -216 305 -311 420 -113 135 -449 474 -546 550 -35
28 -91 73 -125 101 -194 162 -571 390 -881 534 -283 131 -649 248 -950 304
-44 8 -87 17 -95 20 -14 5 -167 25 -365 46 -122 13 -535 20 -670 10z m538
-145 c257 -15 553 -63 832 -135 432 -113 912 -334 1295 -598 86 -59 280 -205
312 -235 8 -7 47 -41 88 -77 299 -258 605 -622 825 -980 71 -116 217 -400 272
-530 515 -1215 440 -2595 -205 -3735 -203 -359 -435 -659 -738 -955 -365 -355
-798 -648 -1244 -840 -41 -18 -93 -40 -115 -50 -45 -20 -265 -97 -365 -128
-162 -51 -408 -105 -633 -139 -176 -26 -196 -27 -582 -28 -433 0 -490 5 -830
71 -530 104 -1061 324 -1530 637 -523 348 -1012 877 -1318 1423 -103 184 -200
388 -257 539 -12 33 -28 74 -35 90 -86 206 -179 591 -226 935 -21 146 -23 207
-24 520 0 319 2 372 23 520 29 201 54 337 94 495 30 123 35 140 87 305 83 263
249 623 403 875 40 64 161 248 168 255 3 3 17 21 30 40 13 19 27 37 30 40 3 3
17 21 30 40 58 84 253 305 384 435 179 177 372 336 591 486 73 51 122 81 290
181 169 101 503 251 735 331 251 86 593 162 865 192 264 30 475 35 748 20z"/>
<path d="M4130 8410 c-1150 -95 -2183 -668 -2876 -1595 -244 -326 -456 -729
-579 -1101 -296 -895 -267 -1880 81 -2746 56 -140 166 -367 241 -498 67 -119
239 -374 305 -455 9 -11 47 -58 84 -105 37 -47 151 -168 253 -271 376 -375
774 -644 1253 -848 606 -258 1289 -359 1962 -291 109 11 217 25 240 30 22 5
93 19 156 31 356 67 780 225 1135 424 849 474 1513 1274 1819 2189 143 425
206 816 205 1266 0 252 -11 429 -39 602 -47 289 -113 548 -205 793 -121 325
-315 686 -514 955 -227 306 -536 620 -826 837 -462 346 -1000 590 -1560 707
-282 59 -441 77 -745 81 -157 2 -332 0 -390 -5z m359 -692 c24 -79 49 -158 57
-175 l13 -33 175 0 c97 0 176 -3 176 -8 0 -4 -63 -52 -140 -107 -77 -55 -140
-104 -140 -110 1 -5 25 -82 54 -170 30 -88 53 -162 50 -164 -4 -4 -13 2 -199
137 -48 35 -92 61 -99 59 -6 -3 -71 -48 -145 -101 -74 -53 -136 -94 -138 -92
-5 4 7 43 73 243 13 39 24 77 24 85 0 7 -61 57 -135 111 -74 54 -137 103 -140
108 -4 5 65 9 173 9 l179 0 47 143 c25 78 49 157 52 175 4 17 9 32 13 32 3 0
26 -64 50 -142z m-908 -235 l34 -113 133 0 c75 0 132 -4 132 -9 0 -5 -39 -38
-87 -72 -130 -93 -123 -84 -108 -127 39 -110 64 -196 59 -203 -3 -5 -22 4 -42
20 -117 90 -164 121 -175 115 -25 -15 -192 -139 -199 -149 -12 -16 -20 2 -9
22 5 10 14 36 20 58 5 22 16 58 24 80 36 99 39 93 -77 175 -58 41 -105 78
-106 82 0 4 61 9 136 10 l137 3 40 124 c24 78 42 119 47 110 4 -8 23 -65 41
-126z m1815 6 l39 -121 140 1 140 1 -26 -22 c-21 -18 -148 -110 -191 -139 -7
-4 23 -118 61 -231 5 -16 7 -28 4 -28 -3 0 -52 34 -109 76 l-104 76 -105 -77
c-58 -43 -108 -75 -110 -73 -3 2 13 58 35 123 46 140 52 122 -81 216 -49 35
-89 67 -89 71 0 4 60 8 134 8 l134 0 30 98 c17 53 33 107 37 120 3 12 10 22
13 22 4 0 26 -54 48 -121z m-2418 -687 c-4 -111 -8 -135 -31 -186 -15 -32 -41
-75 -58 -97 -37 -46 -137 -120 -200 -147 -24 -11 -50 -26 -57 -35 -16 -19 -29
-127 -16 -127 6 0 32 23 59 51 28 28 107 100 178 161 108 93 138 126 195 211
70 107 124 154 200 178 43 13 319 25 357 15 l27 -7 -43 -47 c-138 -154 -225
-234 -292 -267 -67 -34 -74 -35 -183 -35 l-113 0 -98 -79 c-54 -44 -125 -107
-158 -141 l-60 -62 48 5 c40 4 56 12 102 56 61 58 111 83 197 101 49 10 89 8
250 -10 106 -12 195 -24 198 -27 9 -9 -111 -111 -202 -172 -138 -94 -209 -101
-380 -35 l-90 34 -87 -15 c-47 -9 -97 -20 -111 -26 -35 -13 -76 -65 -207 -264
-37 -55 -75 -112 -85 -127 -13 -20 -15 -28 -6 -28 28 1 58 28 98 88 87 130
240 198 471 209 71 3 129 3 129 0 0 -19 -92 -157 -138 -208 -39 -42 -74 -69
-130 -96 -81 -40 -99 -42 -292 -33 -52 3 -74 -1 -110 -19 -104 -53 -106 -56
-194 -303 -33 -91 -74 -258 -64 -258 19 0 64 59 77 101 53 178 150 260 428
363 51 18 94 32 96 29 3 -2 -5 -38 -18 -81 -32 -114 -95 -240 -144 -289 -53
-53 -167 -102 -258 -110 -60 -6 -71 -11 -127 -55 -33 -27 -66 -60 -73 -72 -28
-53 -39 -250 -26 -460 6 -104 6 -106 25 -89 35 31 42 56 48 168 6 96 11 118
38 171 17 33 62 94 100 135 66 71 217 189 241 189 13 0 13 4 1 -180 -9 -136
-11 -148 -45 -217 -43 -86 -89 -128 -199 -179 -73 -33 -80 -39 -126 -110 -59
-91 -67 -130 -46 -244 18 -101 107 -392 122 -397 14 -5 37 109 31 154 -3 21
-12 66 -20 99 -11 46 -12 75 -5 115 13 78 78 205 156 308 37 49 72 98 78 108
19 29 32 6 61 -108 18 -71 26 -132 27 -194 0 -81 -3 -97 -31 -157 -29 -62 -81
-123 -159 -190 -31 -26 -58 -93 -83 -206 -12 -55 -8 -68 53 -182 87 -165 193
-320 218 -320 19 0 5 142 -18 175 -53 78 -69 134 -69 250 0 94 4 123 29 200
16 49 44 124 63 165 l34 75 19 -24 c25 -34 116 -217 135 -271 39 -117 23 -215
-54 -329 -68 -100 -71 -110 -71 -233 l0 -113 93 -90 c109 -105 308 -258 320
-246 4 4 3 30 -4 56 -10 38 -28 66 -81 123 -77 82 -114 147 -129 225 -11 59
-12 267 0 372 l7 70 91 -90 c139 -139 203 -252 203 -361 0 -23 -10 -86 -22
-140 -27 -122 -26 -169 4 -259 l23 -69 140 -69 c77 -38 170 -80 207 -93 72
-26 158 -45 158 -35 0 3 -15 28 -32 55 -26 39 -49 58 -113 92 -169 90 -255
246 -322 587 l-6 29 59 -33 c224 -124 294 -181 345 -284 24 -49 33 -87 44
-183 22 -187 69 -262 200 -316 125 -51 453 -174 484 -181 23 -5 37 -1 57 14
26 20 57 23 184 20 50 -2 86 -1 118 1 20 2 39 -4 52 -15 26 -23 69 -16 192 31
51 20 121 45 155 55 71 22 70 20 76 141 3 65 9 84 35 125 36 55 91 111 177
175 33 25 69 56 80 68 38 43 113 70 195 70 41 0 90 -4 107 -9 32 -9 33 -8 43
27 5 21 22 56 37 79 170 255 199 280 338 292 l70 6 6 55 c3 31 17 91 31 135
15 44 34 105 43 135 9 30 28 70 41 87 35 47 105 91 163 105 39 9 50 15 47 27
-15 51 -27 152 -32 261 -5 123 -5 126 23 180 20 39 46 68 90 101 34 26 66 48
73 51 8 2 -1 26 -25 65 -45 76 -95 235 -102 325 -5 61 -2 72 22 115 16 26 46
67 69 91 39 42 40 45 22 56 -50 29 -100 86 -172 198 -99 154 -104 185 -50 303
20 43 36 84 36 91 0 7 -15 16 -32 19 -55 12 -100 40 -210 129 -131 107 -143
128 -134 240 3 45 9 93 12 109 l6 27 -70 0 c-59 0 -84 6 -154 36 -46 20 -105
44 -132 55 -61 23 -91 51 -123 113 -24 47 -25 54 -21 223 l3 175 36 33 c32 28
46 34 105 40 38 4 101 14 139 22 39 8 98 17 132 20 54 5 68 2 106 -21 66 -38
173 -151 205 -215 22 -46 28 -72 30 -148 3 -74 7 -93 20 -98 10 -4 63 -10 119
-15 120 -9 196 -39 235 -91 45 -59 86 -153 102 -232 17 -80 16 -86 -21 -243
-4 -17 3 -24 44 -39 85 -32 177 -82 204 -112 47 -50 60 -80 75 -170 28 -178
13 -287 -51 -357 -19 -21 -35 -40 -35 -41 0 -1 43 -37 95 -80 114 -94 135
-130 135 -231 0 -205 -31 -296 -131 -394 l-56 -55 29 -35 c16 -19 46 -60 66
-90 36 -54 37 -57 36 -145 -1 -73 -7 -103 -29 -160 -55 -136 -133 -233 -221
-274 -34 -16 -45 -27 -41 -39 2 -9 17 -61 33 -115 l28 -98 -19 -57 c-57 -166
-243 -346 -383 -368 l-42 -7 0 -96 c0 -130 -10 -158 -74 -221 -154 -150 -272
-210 -411 -210 -62 0 -74 -3 -79 -17 -3 -10 -10 -38 -16 -63 -25 -93 -84 -176
-150 -210 -21 -11 -86 -33 -146 -50 -89 -24 -128 -30 -209 -30 -126 1 -199 29
-278 107 l-53 52 -44 -13 c-162 -50 -337 -124 -363 -154 -21 -24 -19 -25 53
-45 30 -8 125 -37 210 -65 85 -27 208 -64 273 -82 64 -18 117 -36 117 -40 0
-7 -323 -70 -362 -70 -15 0 -61 14 -102 30 -42 17 -111 44 -153 61 -64 25 -84
29 -113 22 -19 -5 -69 -7 -110 -5 -41 2 -87 3 -102 3 -40 -2 -93 -1 -130 1
-36 1 -212 -63 -239 -88 -15 -13 -23 -13 -75 0 -33 8 -103 22 -157 31 -54 9
-110 21 -125 26 l-27 11 25 13 c14 7 41 16 60 20 19 4 107 30 195 57 88 28
194 61 235 73 41 13 76 29 78 36 5 29 -390 178 -612 231 -47 11 -95 -3 -226
-62 -194 -89 -289 -71 -604 112 -60 35 -111 68 -113 73 -2 6 23 18 54 27 32 9
90 28 128 43 81 31 172 35 270 11 33 -8 61 -13 63 -11 6 6 -58 46 -114 71 -57
25 -59 25 -298 22 -238 -3 -242 -3 -286 21 -81 43 -156 109 -270 237 -87 97
-110 128 -99 135 19 12 224 11 288 -1 123 -23 235 -107 320 -240 55 -85 68
-94 138 -88 l41 3 -106 85 c-58 47 -158 135 -222 196 -114 110 -116 111 -195
132 -44 12 -124 30 -177 41 -54 11 -110 27 -125 35 -51 26 -112 81 -154 136
-41 54 -204 368 -196 376 9 9 230 -57 285 -85 121 -61 203 -166 248 -316 24
-79 32 -96 54 -104 48 -19 70 -22 70 -12 0 5 -36 65 -81 133 -44 68 -105 173
-134 234 l-54 112 -93 54 c-51 30 -120 65 -153 78 -44 17 -78 42 -126 89 -96
96 -127 182 -183 504 -4 22 -3 37 3 37 34 0 210 -107 269 -164 89 -84 132
-195 132 -338 l0 -98 47 -30 c27 -16 49 -26 51 -21 1 4 -13 57 -32 118 -19 61
-44 162 -56 223 -35 188 -45 205 -169 314 -60 53 -123 112 -141 133 -48 54
-90 153 -97 227 -7 82 7 396 18 396 15 0 150 -132 197 -193 47 -62 92 -180 92
-240 -1 -18 -11 -82 -24 -144 l-23 -112 31 -28 c66 -60 61 -80 61 237 0 250
-2 290 -16 306 -9 11 -33 50 -54 88 -21 38 -54 89 -73 114 -61 81 -77 126 -76
227 1 81 6 105 48 229 58 168 82 226 95 226 17 0 68 -74 99 -145 37 -86 66
-217 57 -265 -14 -77 -37 -138 -71 -190 -54 -81 -57 -99 -26 -162 15 -29 31
-53 36 -53 6 0 27 66 47 147 21 81 44 160 52 175 8 15 28 69 46 119 31 86 32
94 17 121 -8 16 -21 67 -30 114 -8 46 -22 100 -32 119 -11 22 -19 66 -22 118
-6 104 17 172 94 287 73 107 177 239 189 237 14 -2 54 -210 55 -288 0 -39 -7
-93 -15 -121 -24 -80 -106 -178 -204 -243 -23 -15 -23 -15 -6 -80 9 -36 18
-71 21 -79 3 -9 32 31 70 96 36 60 107 164 159 230 51 67 99 138 106 159 8 26
14 97 14 204 1 91 5 176 10 189 20 62 95 160 171 222 118 96 221 168 243 169
2 0 2 -58 -1 -128z m1752 -977 l0 -25 -294 0 c-296 0 -315 2 -302 35 4 13 52
15 301 15 l295 0 0 -25z m-2 -116 c4 -117 14 -113 -289 -117 l-249 -3 -25 25
c-22 22 -25 34 -25 95 0 64 2 70 23 74 12 2 144 4 292 3 l270 -1 3 -76z m-102
-201 c-3 -29 -13 -147 -21 -263 -8 -115 -17 -221 -20 -235 -5 -26 -35 -386
-35 -421 0 -14 -14 -26 -47 -41 -45 -20 -48 -20 -100 -4 -29 9 -57 25 -62 34
-4 9 -11 71 -14 138 -4 66 -13 170 -21 230 -8 60 -17 159 -21 219 -3 61 -13
170 -21 243 -7 74 -14 138 -14 143 0 5 84 9 191 9 l191 0 -6 -52z m-356 -948
c52 -11 110 -25 128 -31 l32 -11 0 -339 c0 -211 -4 -339 -10 -339 -5 0 -33 9
-62 21 -166 67 -355 84 -542 49 -65 -12 -146 -30 -180 -41 -33 -10 -66 -19
-72 -19 -12 0 -1 39 86 315 21 66 54 173 74 237 26 81 42 118 54 122 193 55
181 53 302 54 61 1 129 -5 190 -18z m644 10 c81 -10 217 -50 221 -65 2 -5 18
-59 35 -120 18 -60 38 -128 45 -150 7 -22 25 -80 39 -130 14 -49 36 -123 48
-162 12 -40 19 -76 15 -79 -3 -3 -27 1 -54 9 -113 36 -227 52 -378 52 -157 0
-204 -8 -351 -59 l-69 -24 -3 336 c-2 257 1 337 10 343 12 8 160 45 208 52 47
8 165 6 234 -3z m119 -786 c13 -4 17 -16 17 -50 l0 -44 -612 2 c-585 3 -613 4
-616 21 -2 10 -1 29 2 42 5 21 13 24 59 27 84 6 1130 7 1150 2z m77 -164 l65
-40 -730 1 c-569 0 -726 3 -711 12 10 7 37 24 60 39 l41 28 605 -1 605 0 65
-39z m-1410 -64 c0 -2 -9 -6 -20 -9 -11 -3 -20 -1 -20 4 0 5 9 9 20 9 11 0 20
-2 20 -4z m73 -3 c-7 -2 -21 -2 -30 0 -10 3 -4 5 12 5 17 0 24 -2 18 -5z
m1457 -78 l0 -55 -785 0 -785 0 0 55 0 55 785 0 785 0 0 -55z m-3786 -88 l48
-13 75 -163 c41 -90 72 -165 69 -168 -3 -3 -22 1 -43 9 -33 13 -43 25 -75 94
-63 133 -72 149 -90 152 -34 6 -29 -34 17 -131 25 -53 45 -105 45 -117 0 -22
-34 -95 -48 -104 -12 -7 -105 14 -118 28 -23 23 -152 326 -139 326 7 0 28 -6
46 -14 30 -12 40 -28 85 -128 51 -111 67 -129 87 -97 7 12 -2 43 -40 125 -40
89 -47 113 -38 129 6 11 18 35 28 53 20 36 23 37 91 19z m3781 -10 c11 -8 47
-24 80 -37 33 -13 64 -27 69 -32 6 -4 -415 -8 -934 -8 l-944 0 39 21 c22 11
65 31 95 44 l55 24 760 1 c616 0 764 -3 780 -13z m2297 -75 l35 -59 -17 -54
c-10 -30 -27 -77 -39 -106 l-20 -52 45 -17 c49 -19 64 -42 64 -96 0 -37 0 -37
-178 31 -70 27 -135 52 -144 55 -10 3 -18 13 -18 23 0 10 26 83 58 163 l58
145 44 12 c72 18 75 17 112 -45z m-2086 -111 c1 -36 -1 -73 -4 -83 -4 -17 -44
-18 -998 -18 l-994 0 0 85 0 85 998 -2 997 -3 1 -64z m-3763 -218 l28 -46 -41
-104 c-23 -58 -40 -107 -37 -109 3 -3 47 -7 98 -10 52 -3 104 -7 115 -10 18
-3 52 -44 72 -86 3 -6 -192 -138 -247 -168 -19 -10 -25 -9 -36 7 -21 28 -39
63 -34 66 2 2 40 26 84 53 l80 49 -50 7 c-28 3 -73 7 -102 7 -46 1 -54 4 -66
28 -15 28 -8 60 38 167 20 47 17 46 -84 -19 l-73 -46 -46 27 -46 27 25 19 c29
24 282 187 289 187 3 0 18 -20 33 -46z m5571 1 l15 -46 -53 -93 c-54 -94 -55
-98 -20 -118 8 -4 34 32 70 95 l58 103 12 -30 c19 -44 18 -52 -27 -133 -22
-40 -39 -75 -37 -77 2 -1 12 -7 23 -13 18 -9 26 1 84 104 36 63 67 114 71 114
3 0 11 -20 18 -44 l11 -44 -74 -128 c-40 -71 -79 -128 -85 -126 -10 2 -258
139 -269 149 -3 2 5 20 17 41 12 20 55 94 95 164 39 71 73 128 74 128 0 0 8
-21 17 -46z m-61 -427 c48 -38 87 -75 87 -81 0 -27 -48 -55 -120 -71 -41 -9
-101 -22 -132 -28 -31 -7 -59 -15 -62 -18 -3 -3 26 -29 64 -58 39 -30 70 -61
70 -70 0 -33 -13 -91 -20 -91 -10 0 -285 219 -285 228 0 4 7 17 16 29 15 22
92 45 242 74 31 6 57 14 57 18 0 5 -29 30 -65 57 -35 27 -65 53 -65 58 0 5 12
24 26 43 l26 34 36 -27 c21 -15 76 -59 125 -97z m-5135 -112 c84 -99 89 -110
73 -177 -6 -25 -164 -177 -185 -178 -5 0 -22 15 -37 33 l-27 32 30 32 31 32
-26 33 c-14 18 -41 51 -60 72 l-35 40 -32 -27 c-17 -15 -36 -27 -41 -27 -28 0
-99 24 -97 32 2 5 51 52 108 103 l105 94 56 0 56 1 81 -95z m4727 -141 c0 -44
-3 -48 -78 -117 -76 -71 -77 -72 -60 -94 l18 -22 82 79 c45 44 84 80 87 80 3
0 6 -19 6 -43 0 -39 -5 -48 -59 -101 -50 -49 -58 -62 -50 -78 5 -10 13 -18 17
-18 4 0 50 40 102 89 l95 89 3 -46 c3 -44 2 -47 -70 -119 -40 -41 -91 -89
-112 -106 l-39 -31 -108 114 -108 115 127 128 c70 70 131 127 137 127 5 0 10
-21 10 -46z m-4366 -224 c18 -16 29 -47 52 -148 16 -70 29 -135 29 -144 0 -27
12 -22 38 15 12 17 37 49 55 70 l33 39 37 -24 c20 -13 36 -27 37 -31 0 -10
-192 -257 -201 -257 -3 0 -17 12 -30 28 -25 26 -56 131 -75 250 -4 23 -10 42
-14 42 -5 0 -32 -30 -61 -66 l-52 -66 -49 4 c-27 3 -51 8 -54 11 -3 3 11 28
33 55 21 27 72 93 113 146 41 53 77 96 80 96 3 -1 16 -10 29 -20z m4171 -133
c47 -67 86 -126 88 -132 2 -9 -59 -55 -72 -55 -3 0 -28 34 -57 75 -28 42 -55
73 -58 69 -3 -3 -8 -49 -11 -102 -5 -95 -5 -97 -33 -106 -23 -8 -44 -5 -108
18 -44 16 -82 26 -85 24 -2 -3 20 -39 50 -81 l55 -76 -25 -52 -25 -51 -59 84
c-32 45 -78 110 -101 143 -57 81 -58 87 -9 119 l42 28 105 -36 c57 -20 108
-34 114 -31 5 4 9 57 9 119 l0 113 38 26 c20 14 42 26 47 26 6 1 48 -54 95
-122z m-3702 -195 c85 -49 155 -93 155 -98 1 -5 -19 -13 -45 -18 -45 -9 -49
-7 -134 44 -82 49 -89 51 -101 34 -7 -10 -12 -22 -10 -27 1 -4 43 -32 92 -61
50 -29 89 -57 88 -62 -1 -5 -17 -12 -35 -16 -34 -7 -58 2 -137 49 -42 25 -45
25 -57 8 -8 -11 -14 -21 -14 -24 0 -3 52 -35 115 -71 63 -35 115 -67 115 -70
0 -4 -20 -11 -45 -17 -33 -8 -51 -7 -67 2 -70 38 -224 128 -232 135 -9 9 138
280 152 280 4 0 76 -40 160 -88z m3240 -93 l56 -106 -15 -49 c-16 -48 -17 -50
-125 -106 l-109 -58 -47 16 c-25 8 -51 20 -56 27 -11 15 -132 244 -132 252 0
3 25 5 55 5 l55 0 49 -97 c28 -54 54 -104 59 -111 7 -11 26 -4 90 30 45 24 82
47 82 51 0 4 -25 54 -55 111 l-55 104 33 20 c17 12 38 20 45 19 7 -1 39 -50
70 -108z m-2920 -73 c48 -18 108 -41 134 -51 26 -10 46 -21 43 -25 -2 -3 -21
-14 -43 -24 l-39 -17 -89 36 c-49 20 -94 38 -99 41 -6 2 -24 -30 -40 -73 -17
-42 -31 -79 -33 -83 -1 -4 34 -21 79 -39 65 -26 84 -30 90 -19 15 24 9 39 -19
49 -25 9 -69 75 -57 87 2 2 23 -3 47 -11 83 -30 151 -56 155 -61 3 -3 -5 -29
-17 -59 -19 -46 -30 -58 -68 -76 l-45 -22 -107 42 c-106 41 -108 42 -130 89
l-23 48 28 74 c33 84 44 99 88 115 46 17 49 16 145 -21z m2512 -13 c0 -5 -10
-26 -23 -47 -21 -37 -28 -41 -137 -75 -98 -31 -115 -40 -118 -59 -5 -30 19
-29 135 8 51 17 103 30 115 30 17 0 47 -18 97 -57 2 -1 -4 -29 -14 -62 l-18
-59 -101 -32 c-55 -18 -132 -43 -170 -56 -38 -14 -71 -22 -74 -19 -3 3 4 24
15 48 20 41 22 42 124 72 106 31 147 53 135 73 -11 18 -35 15 -152 -23 -118
-38 -110 -39 -177 17 l-28 23 22 57 22 57 166 55 c179 59 181 60 181 49z
m-2172 -109 c48 -14 112 -32 142 -40 30 -8 66 -19 80 -24 14 -5 99 -19 190
-30 182 -23 185 -24 211 -102 12 -36 11 -40 -16 -67 l-27 -30 21 -29 c21 -31
26 -59 15 -99 -5 -19 -13 -23 -43 -23 -49 0 -56 8 -56 60 0 55 -16 65 -126 75
l-76 6 -7 -50 c-6 -47 -10 -53 -46 -71 -22 -11 -44 -20 -50 -20 -14 0 -13 37
10 188 28 186 29 177 -20 152 l-39 -20 -102 29 c-57 17 -106 28 -111 25 -4 -3
-8 -15 -8 -27 0 -19 12 -25 83 -46 45 -13 94 -26 110 -28 35 -7 34 -14 -4 -35
-40 -23 -58 -23 -141 4 -73 23 -72 23 -82 -8 -6 -19 0 -23 46 -37 29 -8 86
-25 126 -37 39 -12 72 -25 72 -29 0 -11 -57 -41 -79 -41 -25 0 -262 70 -274
80 -8 7 64 278 80 303 3 5 12 6 20 3 8 -3 54 -18 101 -32z m1442 -121 c12 -16
29 -35 37 -45 13 -14 12 -20 -2 -48 -16 -32 -16 -33 10 -60 l27 -28 -28 -54
-29 -53 -100 -17 c-143 -24 -170 -23 -212 9 -33 25 -34 27 -14 35 12 4 72 13
134 19 105 11 137 20 137 40 0 23 -40 27 -135 14 -98 -14 -101 -14 -132 8 -54
36 -57 35 131 62 105 15 123 23 112 51 -5 14 -15 16 -54 10 -26 -4 -78 -9
-117 -12 -65 -5 -72 -3 -99 21 -15 14 -26 28 -24 31 3 2 40 9 84 14 43 6 102
14 129 19 95 16 119 13 145 -16z m-664 -163 c1 -98 -2 -160 -9 -168 -10 -12
-80 -52 -91 -52 -6 0 3 348 10 368 3 9 17 12 46 10 l43 -4 1 -154z"/>
<path d="M5915 6850 c-49 -9 -121 -22 -158 -28 -37 -6 -74 -15 -81 -21 -10 -8
-16 -58 -21 -169 -8 -174 -1 -209 52 -264 85 -89 182 -8 204 168 6 49 17 95
24 103 7 7 48 17 93 21 88 9 112 20 137 62 31 54 3 107 -72 134 -47 16 -66 16
-178 -6z m184 -21 c53 -19 69 -81 31 -119 -16 -16 -33 -20 -81 -20 -65 0 -123
-21 -139 -49 -4 -9 -13 -51 -19 -94 -14 -97 -30 -136 -70 -170 -39 -32 -38
-32 -78 -7 -60 36 -68 65 -65 245 2 88 6 163 10 166 6 6 197 43 267 52 62 8
113 7 144 -4z"/>
<path d="M6200 6687 c-31 -51 -62 -68 -143 -74 -48 -4 -76 -11 -84 -21 -8 -9
-13 -44 -13 -82 0 -67 -7 -83 -76 -178 -9 -12 -14 -25 -11 -28 9 -9 150 -44
180 -44 51 0 80 26 107 98 23 62 28 68 65 80 54 17 75 44 75 98 0 52 -33 144
-60 169 -19 17 -20 16 -40 -18z"/>
<path d="M6240 6384 c-22 -10 -31 -23 -40 -56 -6 -24 -20 -70 -31 -103 -59
-177 -51 -272 28 -318 28 -16 35 -16 65 -4 63 26 105 73 134 149 37 97 54 112
113 104 131 -19 155 -19 184 4 52 41 25 140 -49 175 -75 35 -355 69 -404 49z
m258 -38 c115 -20 136 -26 162 -51 37 -36 47 -78 26 -110 -20 -30 -65 -33
-144 -10 -46 14 -55 14 -87 1 -28 -12 -41 -28 -65 -78 -17 -35 -30 -70 -30
-79 0 -20 -58 -75 -95 -89 -41 -16 -70 -5 -94 34 -31 50 -27 115 14 232 19 54
35 107 35 117 0 10 5 27 10 38 15 26 97 25 268 -5z"/>
<path d="M6701 6110 c-50 -34 -66 -36 -135 -15 -85 26 -88 25 -125 -64 -31
-78 -53 -104 -126 -158 l-30 -21 20 -22 c33 -37 130 -80 178 -80 41 0 45 2 61
39 10 21 31 53 48 71 29 32 31 33 94 27 75 -7 76 -6 93 93 11 68 -1 149 -24
157 -6 1 -30 -11 -54 -27z"/>
<path d="M6628 5823 c-9 -10 -24 -34 -33 -53 -10 -19 -37 -61 -61 -92 -67 -88
-86 -133 -88 -203 -1 -54 3 -67 28 -99 28 -37 31 -38 77 -34 64 7 117 43 163
112 51 77 74 91 123 76 21 -7 56 -23 79 -36 48 -28 95 -31 135 -7 25 15 29 23
29 60 0 87 -39 135 -145 180 -27 12 -97 42 -154 67 -116 51 -131 54 -153 29z
m109 -34 c37 -17 111 -49 163 -70 116 -48 136 -66 151 -137 12 -52 12 -56 -10
-73 -33 -27 -62 -24 -137 16 -106 56 -128 50 -209 -60 -50 -67 -60 -76 -111
-92 -64 -20 -77 -15 -106 38 -34 61 -11 142 72 252 22 28 52 76 67 104 16 29
33 53 40 53 6 0 42 -14 80 -31z"/>
<path d="M6784 5463 c-15 -16 -40 -48 -56 -71 -22 -32 -47 -52 -92 -73 -33
-16 -67 -29 -73 -29 -7 0 -13 -4 -13 -8 0 -15 55 -86 93 -119 61 -54 70 -52
142 16 77 74 110 79 181 30 24 -16 49 -27 54 -24 28 17 63 113 68 183 2 39 1
72 -4 72 -5 0 -25 -5 -44 -10 -59 -18 -109 -15 -133 8 -12 12 -39 28 -60 37
-37 15 -38 15 -63 -12z"/>
<path d="M6863 5179 c-12 -4 -44 -30 -70 -56 -27 -26 -78 -76 -115 -111 -37
-35 -74 -78 -82 -97 -19 -39 -21 -143 -3 -166 48 -63 150 -49 244 34 96 84
121 84 198 2 53 -56 87 -72 130 -61 47 12 65 40 65 104 0 80 -22 116 -115 190
-44 35 -100 84 -125 108 -50 48 -93 66 -127 53z m114 -72 c32 -29 89 -77 126
-106 77 -61 107 -109 107 -175 0 -56 -19 -76 -70 -76 -33 0 -45 7 -85 49 -26
27 -60 55 -75 61 -42 17 -94 -3 -157 -60 -52 -47 -84 -60 -151 -60 -52 0 -72
23 -72 82 0 27 7 63 16 81 8 18 68 83 132 145 140 135 144 136 229 59z"/>
<path d="M6925 4790 c-11 -4 -33 -22 -50 -40 -41 -43 -89 -67 -170 -81 l-67
-13 5 -33 c7 -41 54 -120 83 -140 19 -12 26 -10 75 24 47 32 62 37 112 38 l59
0 48 -55 49 -55 41 40 c42 41 82 114 95 173 l7 32 -70 0 -69 0 -47 50 c-55 59
-74 70 -101 60z"/>
<path d="M6830 4465 c-30 -20 -89 -52 -130 -73 -89 -44 -141 -93 -165 -155
-21 -56 -14 -109 20 -143 37 -36 95 -32 226 17 104 39 110 40 134 25 14 -9 38
-43 55 -75 35 -70 61 -91 111 -91 69 0 108 66 96 167 -5 44 -56 129 -189 311
-49 65 -78 69 -158 17z m168 -70 c30 -44 77 -112 105 -152 61 -88 72 -145 38
-211 -18 -35 -26 -42 -52 -42 -47 0 -65 15 -105 89 -50 94 -88 110 -164 71
-21 -11 -73 -29 -115 -41 -97 -26 -131 -20 -151 27 -33 78 33 175 159 238 40
19 97 51 127 71 78 50 92 46 158 -50z"/>
<path d="M6790 4058 c-61 -30 -71 -32 -158 -30 l-93 1 6 -57 c11 -92 24 -132
43 -132 9 0 56 7 103 16 139 27 165 15 204 -91 10 -27 19 -51 20 -53 12 -18
146 91 169 137 19 38 29 72 19 69 -18 -5 -99 14 -116 27 -10 7 -33 42 -51 77
-41 77 -56 81 -146 36z"/>
<path d="M6690 3805 c-30 -7 -98 -20 -151 -30 -163 -28 -238 -90 -239 -196 0
-31 6 -40 42 -65 41 -28 44 -29 173 -29 96 0 136 -4 148 -14 19 -15 37 -72 37
-114 0 -16 7 -44 16 -63 35 -74 147 -64 187 18 34 69 33 122 -7 274 -20 76
-47 159 -59 184 -19 40 -26 45 -57 47 -19 1 -60 -5 -90 -12z m142 -87 c14 -46
36 -117 49 -158 53 -171 8 -312 -93 -293 -42 8 -57 34 -67 113 -8 58 -15 78
-36 99 -25 26 -28 26 -151 23 -120 -3 -127 -2 -170 23 -37 21 -44 31 -44 56 0
94 88 155 256 178 51 7 111 19 135 26 88 27 92 25 121 -67z"/>
<path d="M6256 3422 c-18 -64 -21 -128 -7 -136 5 -4 58 -9 118 -12 159 -10
183 -30 183 -149 0 -62 1 -65 25 -65 55 0 205 89 205 122 0 4 -17 16 -37 27
-57 29 -70 48 -89 138 -10 48 -23 84 -31 87 -8 3 -56 1 -106 -6 l-92 -11 -69
32 c-38 17 -72 31 -76 31 -4 0 -15 -26 -24 -58z"/>
<path d="M6050 3231 c-73 -24 -133 -76 -146 -126 -14 -55 78 -139 165 -150 73
-10 134 -25 159 -41 25 -16 29 -58 12 -129 -11 -49 2 -104 31 -131 53 -48 159
-1 204 89 24 49 25 57 25 246 0 108 -5 203 -10 211 -9 15 -41 19 -315 34 -55
3 -111 2 -125 -3z m308 -28 c64 -4 106 -11 113 -19 7 -9 9 -77 7 -201 -3 -172
-5 -192 -26 -235 -26 -53 -59 -78 -112 -85 -30 -4 -42 -1 -60 17 -20 20 -22
28 -15 84 4 33 8 78 8 100 1 57 -27 76 -156 105 -88 20 -114 30 -147 58 -21
18 -42 42 -45 53 -13 40 64 112 139 131 17 5 67 6 111 3 44 -2 126 -7 183 -11z"/>
<path d="M5844 3001 c-32 -40 -64 -103 -64 -127 0 -16 14 -27 59 -48 32 -14
63 -26 68 -26 20 0 108 -43 131 -63 28 -26 28 -47 -2 -134 -13 -39 -22 -74
-18 -77 20 -21 191 14 236 49 18 14 17 17 -28 65 -42 45 -47 55 -42 83 15 87
18 155 7 162 -7 4 -50 10 -95 14 -90 9 -115 20 -191 91 l-40 38 -21 -27z"/>
<path d="M5473 2840 c-39 -12 -83 -63 -83 -96 0 -73 61 -138 172 -184 78 -32
108 -60 108 -101 0 -12 -16 -54 -36 -95 l-37 -74 29 -47 c23 -37 37 -49 59
-51 83 -10 188 61 217 148 94 277 110 337 97 361 -5 10 -45 29 -91 45 -46 15
-92 33 -103 40 -67 43 -263 75 -332 54z m298 -64 c46 -19 113 -46 149 -59 53
-18 64 -26 62 -42 -3 -23 -75 -256 -99 -325 -24 -68 -77 -115 -143 -129 -55
-12 -55 -12 -82 19 -35 38 -35 53 2 126 58 114 34 168 -96 217 -128 49 -190
153 -126 210 26 23 49 26 153 23 83 -3 107 -9 180 -40z"/>
<path d="M5261 2654 c-108 -97 -142 -244 -82 -350 47 -80 130 -134 241 -154
58 -10 129 -7 166 7 19 7 17 30 -5 62 -35 48 -35 73 -2 149 46 105 46 106 -61
156 -95 43 -125 71 -159 149 -17 38 -39 34 -98 -19z"/>
<path d="M4353 2163 c-14 -51 -8 -193 9 -210 15 -14 17 -13 27 5 12 23 17 187
6 215 -11 26 -34 20 -42 -10z"/>
<path d="M4477 2183 c-4 -3 -7 -55 -7 -114 0 -96 2 -109 19 -118 26 -15 30 0
32 120 1 76 -2 104 -12 110 -17 11 -24 11 -32 2z"/>
<path d="M4602 2178 c-15 -15 -16 -175 -2 -212 15 -41 38 -22 45 37 7 61 -6
179 -20 184 -6 2 -16 -2 -23 -9z"/>
<path d="M7399 3213 c-54 -123 -55 -135 -13 -147 22 -7 37 18 74 125 28 80
-28 99 -61 22z"/>
<path d="M1890 2425 l-23 -24 63 -71 c58 -66 64 -70 83 -57 45 30 44 41 -18
111 -32 36 -64 66 -70 66 -6 0 -22 -11 -35 -25z"/>
<path d="M3872 1259 l3 -34 84 -8 c95 -9 111 -6 111 23 0 26 -26 36 -124 45
l-77 7 3 -33z"/>
</g>
</svg>
